<?xml version="1.0" encoding="UTF-8" standalone="no"?>
<!DOCTYPE svg PUBLIC "-//W3C//DTD SVG 1.1//EN"
 "http://www.w3.org/Graphics/SVG/1.1/DTD/svg11.dtd">
<!-- Generated by graphviz version 2.50.0 (0)
 -->
<!-- Pages: 1 -->
<svg width="704pt" height="980pt"
 viewBox="0.00 0.00 704.00 980.00" xmlns="http://www.w3.org/2000/svg" xmlns:xlink="http://www.w3.org/1999/xlink">
<g id="graph0" class="graph" transform="scale(1 1) rotate(0) translate(4 976)">
<polygon fill="white" stroke="transparent" points="-4,4 -4,-976 700,-976 700,4 -4,4"/>
<!-- 1226457055860038579 -->
<g id="node1" class="node">
<title>1226457055860038579</title>
<polygon fill="none" stroke="black" points="346.5,-972 194.5,-972 194.5,-936 346.5,-936 346.5,-972"/>
<text text-anchor="middle" x="270.5" y="-949" font-family="Helvetica,sans-Serif" font-size="20.00">Min(Projection)</text>
</g>
<!-- 2907256278561293032 -->
<g id="node2" class="node">
<title>2907256278561293032</title>
<polygon fill="none" stroke="black" points="442.5,-900 98.5,-900 98.5,-864 442.5,-864 442.5,-900"/>
<text text-anchor="middle" x="270.5" y="-877" font-family="Helvetica,sans-Serif" font-size="20.00">Projection(Assign, [&#39;ArrDelay&#39;, &#39;Dest&#39;])</text>
</g>
<!-- 2907256278561293032&#45;&gt;1226457055860038579 -->
<g id="edge1" class="edge">
<title>2907256278561293032&#45;&gt;1226457055860038579</title>
<path fill="none" stroke="black" d="M270.5,-900.3C270.5,-908.02 270.5,-917.29 270.5,-925.89"/>
<polygon fill="black" stroke="black" points="267,-925.9 270.5,-935.9 274,-925.9 267,-925.9"/>
</g>
<!-- 1127765192147790200 -->
<g id="node3" class="node">
<title>1127765192147790200</title>
<polygon fill="none" stroke="black" points="433,-828 108,-828 108,-792 433,-792 433,-828"/>
<text text-anchor="middle" x="270.5" y="-805" font-family="Helvetica,sans-Serif" font-size="20.00">Assign(Assign, Year, PropertyMap)</text>
</g>
<!-- 1127765192147790200&#45;&gt;2907256278561293032 -->
<g id="edge2" class="edge">
<title>1127765192147790200&#45;&gt;2907256278561293032</title>
<path fill="none" stroke="black" d="M270.5,-828.3C270.5,-836.02 270.5,-845.29 270.5,-853.89"/>
<polygon fill="black" stroke="black" points="267,-853.9 270.5,-863.9 274,-853.9 267,-853.9"/>
</g>
<!-- 4280771799878523684 -->
<g id="node4" class="node">
<title>4280771799878523684</title>
<polygon fill="none" stroke="black" points="315.5,-756 81.5,-756 81.5,-720 315.5,-720 315.5,-756"/>
<text text-anchor="middle" x="198.5" y="-733" font-family="Helvetica,sans-Serif" font-size="20.00">PropertyMap(Projection)</text>
</g>
<!-- 4280771799878523684&#45;&gt;1127765192147790200 -->
<g id="edge4" class="edge">
<title>4280771799878523684&#45;&gt;1127765192147790200</title>
<path fill="none" stroke="black" d="M216.3,-756.3C225.1,-764.86 235.88,-775.34 245.5,-784.7"/>
<polygon fill="black" stroke="black" points="243.3,-787.43 252.91,-791.9 248.18,-782.42 243.3,-787.43"/>
</g>
<!-- &#45;8569212533451057553 -->
<g id="node5" class="node">
<title>&#45;8569212533451057553</title>
<polygon fill="none" stroke="black" points="315.5,-684 83.5,-684 83.5,-648 315.5,-648 315.5,-684"/>
<text text-anchor="middle" x="199.5" y="-661" font-family="Helvetica,sans-Serif" font-size="20.00">Projection(Assign, Date)</text>
</g>
<!-- &#45;8569212533451057553&#45;&gt;4280771799878523684 -->
<g id="edge5" class="edge">
<title>&#45;8569212533451057553&#45;&gt;4280771799878523684</title>
<path fill="none" stroke="black" d="M199.25,-684.3C199.14,-692.02 199.01,-701.29 198.89,-709.89"/>
<polygon fill="black" stroke="black" points="195.39,-709.85 198.74,-719.9 202.39,-709.95 195.39,-709.85"/>
</g>
<!-- &#45;2639941987308858222 -->
<g id="node6" class="node">
<title>&#45;2639941987308858222</title>
<polygon fill="none" stroke="black" points="420,-612 123,-612 123,-576 420,-576 420,-612"/>
<text text-anchor="middle" x="271.5" y="-589" font-family="Helvetica,sans-Serif" font-size="20.00">Assign(Drop, Date, ToDatetime)</text>
</g>
<!-- &#45;2639941987308858222&#45;&gt;1127765192147790200 -->
<g id="edge3" class="edge">
<title>&#45;2639941987308858222&#45;&gt;1127765192147790200</title>
<path fill="none" stroke="black" d="M295.98,-612.23C306.9,-621.44 318.62,-633.81 324.5,-648 342.87,-692.35 343.08,-711.74 324.5,-756 319.86,-767.05 311.67,-776.96 303.04,-785.14"/>
<polygon fill="black" stroke="black" points="300.61,-782.62 295.43,-791.86 305.24,-787.86 300.61,-782.62"/>
</g>
<!-- &#45;2639941987308858222&#45;&gt;&#45;8569212533451057553 -->
<g id="edge6" class="edge">
<title>&#45;2639941987308858222&#45;&gt;&#45;8569212533451057553</title>
<path fill="none" stroke="black" d="M253.7,-612.3C244.9,-620.86 234.12,-631.34 224.5,-640.7"/>
<polygon fill="black" stroke="black" points="221.82,-638.42 217.09,-647.9 226.7,-643.43 221.82,-638.42"/>
</g>
<!-- 2943596558983642268 -->
<g id="node7" class="node">
<title>2943596558983642268</title>
<polygon fill="none" stroke="black" points="299,-540 132,-540 132,-504 299,-504 299,-540"/>
<text text-anchor="middle" x="215.5" y="-517" font-family="Helvetica,sans-Serif" font-size="20.00">ToDatetime(Add)</text>
</g>
<!-- 2943596558983642268&#45;&gt;&#45;2639941987308858222 -->
<g id="edge8" class="edge">
<title>2943596558983642268&#45;&gt;&#45;2639941987308858222</title>
<path fill="none" stroke="black" d="M229.34,-540.3C235.99,-548.61 244.08,-558.72 251.39,-567.86"/>
<polygon fill="black" stroke="black" points="248.84,-570.27 257.82,-575.9 254.3,-565.9 248.84,-570.27"/>
</g>
<!-- &#45;6883555389637721139 -->
<g id="node8" class="node">
<title>&#45;6883555389637721139</title>
<polygon fill="none" stroke="black" points="278,-468 99,-468 99,-432 278,-432 278,-468"/>
<text text-anchor="middle" x="188.5" y="-445" font-family="Helvetica,sans-Serif" font-size="20.00">Add(Add, AsType)</text>
</g>
<!-- &#45;6883555389637721139&#45;&gt;2943596558983642268 -->
<g id="edge9" class="edge">
<title>&#45;6883555389637721139&#45;&gt;2943596558983642268</title>
<path fill="none" stroke="black" d="M195.17,-468.3C198.21,-476.19 201.88,-485.7 205.26,-494.45"/>
<polygon fill="black" stroke="black" points="202.04,-495.83 208.9,-503.9 208.57,-493.31 202.04,-495.83"/>
</g>
<!-- &#45;7787913399081547310 -->
<g id="node9" class="node">
<title>&#45;7787913399081547310</title>
<polygon fill="none" stroke="black" points="188.5,-396 2.5,-396 2.5,-360 188.5,-360 188.5,-396"/>
<text text-anchor="middle" x="95.5" y="-373" font-family="Helvetica,sans-Serif" font-size="20.00">AsType(Projection)</text>
</g>
<!-- &#45;7787913399081547310&#45;&gt;&#45;6883555389637721139 -->
<g id="edge11" class="edge">
<title>&#45;7787913399081547310&#45;&gt;&#45;6883555389637721139</title>
<path fill="none" stroke="black" d="M118.49,-396.3C130.31,-405.2 144.89,-416.18 157.68,-425.8"/>
<polygon fill="black" stroke="black" points="155.68,-428.68 165.78,-431.9 159.89,-423.09 155.68,-428.68"/>
</g>
<!-- &#45;3129683924863471947 -->
<g id="node10" class="node">
<title>&#45;3129683924863471947</title>
<polygon fill="none" stroke="black" points="281,-324 0,-324 0,-288 281,-288 281,-324"/>
<text text-anchor="middle" x="140.5" y="-301" font-family="Helvetica,sans-Serif" font-size="20.00">Projection(Drop, DayofMonth)</text>
</g>
<!-- &#45;3129683924863471947&#45;&gt;&#45;7787913399081547310 -->
<g id="edge12" class="edge">
<title>&#45;3129683924863471947&#45;&gt;&#45;7787913399081547310</title>
<path fill="none" stroke="black" d="M129.38,-324.3C124.14,-332.44 117.8,-342.31 112.02,-351.3"/>
<polygon fill="black" stroke="black" points="108.96,-349.59 106.5,-359.9 114.85,-353.38 108.96,-349.59"/>
</g>
<!-- &#45;3602022731541658814 -->
<g id="node11" class="node">
<title>&#45;3602022731541658814</title>
<polygon fill="none" stroke="black" points="257,-252 140,-252 140,-216 257,-216 257,-252"/>
<text text-anchor="middle" x="198.5" y="-229" font-family="Helvetica,sans-Serif" font-size="20.00">Drop(Drop)</text>
</g>
<!-- &#45;3602022731541658814&#45;&gt;&#45;3129683924863471947 -->
<g id="edge13" class="edge">
<title>&#45;3602022731541658814&#45;&gt;&#45;3129683924863471947</title>
<path fill="none" stroke="black" d="M184.16,-252.3C177.21,-260.7 168.73,-270.93 161.1,-280.14"/>
<polygon fill="black" stroke="black" points="158.36,-277.96 154.67,-287.9 163.75,-282.43 158.36,-277.96"/>
</g>
<!-- 2429416499477047833 -->
<g id="node21" class="node">
<title>2429416499477047833</title>
<polygon fill="none" stroke="black" points="413,-468 296,-468 296,-432 413,-432 413,-468"/>
<text text-anchor="middle" x="354.5" y="-445" font-family="Helvetica,sans-Serif" font-size="20.00">Drop(Drop)</text>
</g>
<!-- &#45;3602022731541658814&#45;&gt;2429416499477047833 -->
<g id="edge24" class="edge">
<title>&#45;3602022731541658814&#45;&gt;2429416499477047833</title>
<path fill="none" stroke="black" d="M237.17,-252.21C254.51,-261.19 274.4,-273.37 289.5,-288 316.6,-314.26 320.16,-325.1 334.5,-360 342.66,-379.87 347.79,-403.66 350.81,-421.65"/>
<polygon fill="black" stroke="black" points="347.38,-422.41 352.38,-431.75 354.3,-421.33 347.38,-422.41"/>
</g>
<!-- 577403211264150197 -->
<g id="node12" class="node">
<title>577403211264150197</title>
<polygon fill="none" stroke="black" points="421,-108 258,-108 258,-72 421,-72 421,-108"/>
<text text-anchor="middle" x="339.5" y="-85" font-family="Helvetica,sans-Serif" font-size="20.00">Drop(ReadCSV)</text>
</g>
<!-- 577403211264150197&#45;&gt;&#45;3602022731541658814 -->
<g id="edge14" class="edge">
<title>577403211264150197&#45;&gt;&#45;3602022731541658814</title>
<path fill="none" stroke="black" d="M270.32,-108.01C250.7,-115.96 231.03,-127.47 217.5,-144 203.39,-161.25 199.06,-186.52 198.02,-205.73"/>
<polygon fill="black" stroke="black" points="194.51,-205.87 197.73,-215.96 201.51,-206.06 194.51,-205.87"/>
</g>
<!-- &#45;5647558172445137458 -->
<g id="node17" class="node">
<title>&#45;5647558172445137458</title>
<polygon fill="none" stroke="black" points="456,-180 227,-180 227,-144 456,-144 456,-180"/>
<text text-anchor="middle" x="341.5" y="-157" font-family="Helvetica,sans-Serif" font-size="20.00">Projection(Drop, Month)</text>
</g>
<!-- 577403211264150197&#45;&gt;&#45;5647558172445137458 -->
<g id="edge20" class="edge">
<title>577403211264150197&#45;&gt;&#45;5647558172445137458</title>
<path fill="none" stroke="black" d="M339.99,-108.3C340.21,-116.02 340.48,-125.29 340.73,-133.89"/>
<polygon fill="black" stroke="black" points="337.23,-134 341.01,-143.9 344.22,-133.8 337.23,-134"/>
</g>
<!-- 3796966508793423375 -->
<g id="node13" class="node">
<title>3796966508793423375</title>
<polygon fill="none" stroke="black" points="506.5,-36 400.5,-36 400.5,0 506.5,0 506.5,-36"/>
<text text-anchor="middle" x="453.5" y="-13" font-family="Helvetica,sans-Serif" font-size="20.00">ReadCSV</text>
</g>
<!-- 3796966508793423375&#45;&gt;577403211264150197 -->
<g id="edge15" class="edge">
<title>3796966508793423375&#45;&gt;577403211264150197</title>
<path fill="none" stroke="black" d="M425.61,-36.12C410.71,-45.28 392.17,-56.66 376.12,-66.52"/>
<polygon fill="black" stroke="black" points="374.19,-63.59 367.49,-71.81 377.85,-69.56 374.19,-63.59"/>
</g>
<!-- &#45;2113410197624000559 -->
<g id="node20" class="node">
<title>&#45;2113410197624000559</title>
<polygon fill="none" stroke="black" points="696,-108 439,-108 439,-72 696,-72 696,-108"/>
<text text-anchor="middle" x="567.5" y="-85" font-family="Helvetica,sans-Serif" font-size="20.00">Projection(ReadCSV, Year)</text>
</g>
<!-- 3796966508793423375&#45;&gt;&#45;2113410197624000559 -->
<g id="edge23" class="edge">
<title>3796966508793423375&#45;&gt;&#45;2113410197624000559</title>
<path fill="none" stroke="black" d="M481.39,-36.12C496.29,-45.28 514.83,-56.66 530.88,-66.52"/>
<polygon fill="black" stroke="black" points="529.15,-69.56 539.51,-71.81 532.81,-63.59 529.15,-69.56"/>
</g>
<!-- &#45;8785226473624831447 -->
<g id="node14" class="node">
<title>&#45;8785226473624831447</title>
<polygon fill="none" stroke="black" points="326,-396 207,-396 207,-360 326,-360 326,-396"/>
<text text-anchor="middle" x="266.5" y="-373" font-family="Helvetica,sans-Serif" font-size="20.00">Add(Add, &#45;)</text>
</g>
<!-- &#45;8785226473624831447&#45;&gt;&#45;6883555389637721139 -->
<g id="edge10" class="edge">
<title>&#45;8785226473624831447&#45;&gt;&#45;6883555389637721139</title>
<path fill="none" stroke="black" d="M247.22,-396.3C237.58,-404.95 225.77,-415.55 215.27,-424.97"/>
<polygon fill="black" stroke="black" points="212.66,-422.61 207.56,-431.9 217.34,-427.82 212.66,-422.61"/>
</g>
<!-- &#45;3398601720891426892 -->
<g id="node15" class="node">
<title>&#45;3398601720891426892</title>
<polygon fill="none" stroke="black" points="562,-324 383,-324 383,-288 562,-288 562,-324"/>
<text text-anchor="middle" x="472.5" y="-301" font-family="Helvetica,sans-Serif" font-size="20.00">Add(Add, AsType)</text>
</g>
<!-- &#45;3398601720891426892&#45;&gt;&#45;8785226473624831447 -->
<g id="edge16" class="edge">
<title>&#45;3398601720891426892&#45;&gt;&#45;8785226473624831447</title>
<path fill="none" stroke="black" d="M422.37,-324.03C393.46,-333.86 356.93,-346.27 326.5,-356.61"/>
<polygon fill="black" stroke="black" points="325.2,-353.36 316.85,-359.89 327.45,-359.99 325.2,-353.36"/>
</g>
<!-- 6429581083013880151 -->
<g id="node16" class="node">
<title>6429581083013880151</title>
<polygon fill="none" stroke="black" points="467.5,-252 281.5,-252 281.5,-216 467.5,-216 467.5,-252"/>
<text text-anchor="middle" x="374.5" y="-229" font-family="Helvetica,sans-Serif" font-size="20.00">AsType(Projection)</text>
</g>
<!-- 6429581083013880151&#45;&gt;&#45;3398601720891426892 -->
<g id="edge18" class="edge">
<title>6429581083013880151&#45;&gt;&#45;3398601720891426892</title>
<path fill="none" stroke="black" d="M398.47,-252.12C411.05,-261.11 426.63,-272.24 440.25,-281.97"/>
<polygon fill="black" stroke="black" points="438.26,-284.85 448.43,-287.81 442.33,-279.15 438.26,-284.85"/>
</g>
<!-- &#45;5647558172445137458&#45;&gt;6429581083013880151 -->
<g id="edge19" class="edge">
<title>&#45;5647558172445137458&#45;&gt;6429581083013880151</title>
<path fill="none" stroke="black" d="M349.66,-180.3C353.41,-188.27 357.95,-197.9 362.12,-206.74"/>
<polygon fill="black" stroke="black" points="359.01,-208.34 366.44,-215.9 365.34,-205.36 359.01,-208.34"/>
</g>
<!-- 223813197839412650 -->
<g id="node18" class="node">
<title>223813197839412650</title>
<polygon fill="none" stroke="black" points="638.5,-252 488.5,-252 488.5,-216 638.5,-216 638.5,-252"/>
<text text-anchor="middle" x="563.5" y="-229" font-family="Helvetica,sans-Serif" font-size="20.00">Add(AsType, &#45;)</text>
</g>
<!-- 223813197839412650&#45;&gt;&#45;3398601720891426892 -->
<g id="edge17" class="edge">
<title>223813197839412650&#45;&gt;&#45;3398601720891426892</title>
<path fill="none" stroke="black" d="M541.01,-252.3C529.54,-261.12 515.44,-271.97 503.02,-281.53"/>
<polygon fill="black" stroke="black" points="500.53,-279.02 494.74,-287.9 504.8,-284.57 500.53,-279.02"/>
</g>
<!-- 1854616469137334864 -->
<g id="node19" class="node">
<title>1854616469137334864</title>
<polygon fill="none" stroke="black" points="660.5,-180 474.5,-180 474.5,-144 660.5,-144 660.5,-180"/>
<text text-anchor="middle" x="567.5" y="-157" font-family="Helvetica,sans-Serif" font-size="20.00">AsType(Projection)</text>
</g>
<!-- 1854616469137334864&#45;&gt;223813197839412650 -->
<g id="edge21" class="edge">
<title>1854616469137334864&#45;&gt;223813197839412650</title>
<path fill="none" stroke="black" d="M566.51,-180.3C566.07,-188.02 565.54,-197.29 565.05,-205.89"/>
<polygon fill="black" stroke="black" points="561.55,-205.71 564.48,-215.9 568.54,-206.11 561.55,-205.71"/>
</g>
<!-- &#45;2113410197624000559&#45;&gt;1854616469137334864 -->
<g id="edge22" class="edge">
<title>&#45;2113410197624000559&#45;&gt;1854616469137334864</title>
<path fill="none" stroke="black" d="M567.5,-108.3C567.5,-116.02 567.5,-125.29 567.5,-133.89"/>
<polygon fill="black" stroke="black" points="564,-133.9 567.5,-143.9 571,-133.9 564,-133.9"/>
</g>
<!-- 2429416499477047833&#45;&gt;&#45;2639941987308858222 -->
<g id="edge7" class="edge">
<title>2429416499477047833&#45;&gt;&#45;2639941987308858222</title>
<path fill="none" stroke="black" d="M346.21,-468.04C337.22,-486.18 322.17,-515.59 307.5,-540 302.06,-549.06 295.69,-558.69 289.85,-567.23"/>
<polygon fill="black" stroke="black" points="286.82,-565.44 284,-575.65 292.58,-569.43 286.82,-565.44"/>
</g>
</g>
</svg>
